<svg width="197" height="197" viewBox="0 0 197 197" fill="none" xmlns="http://www.w3.org/2000/svg">
	<path d="M65.1996 38.4535C59.5385 22.3622 65.1996 6.11311 68.7379 0C45.1497 8.43018 51.9313 38.4535 49.2776 35.0518C47.1547 32.3305 45.6411 24.6497 45.1497 21.1494C33.0608 26.7695 24.2152 38.4535 23.0358 50.4332C22.0923 60.017 40.0389 79.0761 49.1302 87.4077C47.8328 88.1176 31.9796 77.1534 24.2152 71.5826C26.6232 77.4985 31.557 90.0402 32.0288 92.8799C32.5005 95.7195 49.5233 104.416 57.9758 108.409L37.4835 104.12C39.9898 109.247 46.1522 120.596 50.7519 124.974C55.3516 129.352 76.4531 135.474 86.429 137.989C78.6449 139.054 64.2168 136.165 57.9758 134.587L74.6349 154.701L94.0951 147.454C67.0867 170.763 44.0194 160.913 35.8619 153.074C35.6161 153.617 35.5965 156.328 37.4835 162.836C39.3706 169.343 59.5974 169.491 69.475 168.751C53.6709 174.194 41.5623 171.019 37.4835 168.751C37.4835 173.484 41.0218 179.302 42.7909 181.619C55.7644 181.855 68.9344 176.886 73.8978 174.372C70.7134 177.921 53.3073 182.95 45.0023 185.02C44.8843 188.688 50.457 191.774 53.2581 192.859C61.9857 191.794 74.0943 182.851 79.0577 178.513C77.8783 185.375 64.5116 193.204 57.9758 196.261C64.4625 197.917 71.7847 195.57 74.6349 194.19C76.8758 188.511 86.3798 178.611 90.8518 174.372C105.594 183.098 116.356 175.259 124.317 180.435C132.278 185.612 128.003 183.393 127.119 189.014C126.411 193.51 129.87 196.211 131.689 197C130.411 195.176 129.094 191.025 134.048 189.014C139.001 187.002 144.073 182.457 145.989 180.435L147.168 181.619C143.63 187.715 145.694 190.765 147.168 191.528L174 175.259C169.518 168.87 163.778 169.047 161.469 169.935C159.582 173.603 156.751 175.013 155.572 175.259L116.356 162.836C120.013 162.362 126.431 156.131 129.183 153.074C140.151 134.38 148.692 140.848 151.591 146.419C151.473 143.461 149.478 139.566 148.495 137.989C155.808 141.183 156.26 145.926 155.572 147.898C163.828 146.596 160.486 138.087 157.783 133.995C160.142 133.167 150.903 123.002 145.989 118.023C146.038 119.452 145.724 122.282 144.073 122.164C142.421 122.045 139.748 119.354 138.618 118.023L139.355 121.424L134.048 119.502C134.342 120.29 134.755 121.779 134.048 121.424C133.34 121.069 120.091 122.755 113.555 123.643C94.0951 101.162 72.2761 58.5676 65.1996 38.4535Z" fill="#A82F1A" />
	<path d="M75.2246 48.5105C71.6864 58.3309 99.7956 101.211 114.292 121.424L120.927 119.502C106.774 35.9688 117.094 8.38088 124.023 5.02853C96.6603 13.7841 95.1271 33.2277 97.7808 41.8551C91.7658 33.2179 91.3432 24.4525 91.8837 21.1494C78.5564 26.7104 75.2246 41.7072 75.2246 48.5105Z" fill="#A82F1A" />
</svg>