<svg width="1050" height="200" viewBox="0 0 1050 200" fill="none" xmlns="http://www.w3.org/2000/svg">
<path d="M43.1996 39.4535C37.5385 23.3622 43.1996 7.11311 46.7379 1C23.1497 9.43018 29.9313 39.4535 27.2776 36.0518C25.1547 33.3305 23.6411 25.6497 23.1497 22.1494C11.0608 27.7695 2.2152 39.4535 1.03579 51.4332C0.0922636 61.017 18.0389 80.0761 27.1302 88.4077C25.8328 89.1176 9.97963 78.1534 2.2152 72.5826C4.62316 78.4985 9.55701 91.0402 10.0288 93.8799C10.5005 96.7195 27.5233 105.416 35.9758 109.409L15.4835 105.12C17.9898 110.247 24.1522 121.596 28.7519 125.974C33.3516 130.352 54.4531 136.474 64.429 138.989C56.6449 140.054 42.2168 137.165 35.9758 135.587L52.6349 155.701L72.0951 148.454C45.0867 171.763 22.0194 161.913 13.8619 154.074C13.6161 154.617 13.5965 157.328 15.4835 163.836C17.3706 170.343 37.5974 170.491 47.475 169.751C31.6709 175.194 19.5623 172.019 15.4835 169.751C15.4835 174.484 19.0218 180.302 20.7909 182.619C33.7644 182.855 46.9344 177.886 51.8978 175.372C48.7134 178.921 31.3073 183.95 23.0023 186.02C22.8843 189.688 28.457 192.774 31.2581 193.859C39.9857 192.794 52.0943 183.851 57.0577 179.513C55.8783 186.375 42.5116 194.204 35.9758 197.261C42.4625 198.917 49.7847 196.57 52.6349 195.19C54.8758 189.511 64.3798 179.611 68.8518 175.372C83.5943 184.098 94.3564 176.259 102.317 181.435C110.278 186.612 106.003 184.393 105.119 190.014C104.411 194.51 107.87 197.211 109.689 198C108.411 196.176 107.094 192.025 112.048 190.014C117.001 188.002 122.073 183.457 123.989 181.435L125.168 182.619C121.63 188.715 123.694 191.765 125.168 192.528L152 176.259C147.518 169.87 141.778 170.047 139.469 170.935C137.582 174.603 134.751 176.013 133.572 176.259L94.3564 163.836C98.0126 163.362 104.431 157.131 107.183 154.074C118.151 135.38 126.692 141.848 129.591 147.419C129.473 144.461 127.478 140.566 126.495 138.989C133.808 142.183 134.26 146.926 133.572 148.898C141.828 147.596 138.486 139.087 135.783 134.995C138.142 134.167 128.903 124.002 123.989 119.023C124.038 120.452 123.724 123.282 122.073 123.164C120.421 123.045 117.748 120.354 116.618 119.023L117.355 122.424L112.048 120.502C112.342 121.29 112.755 122.779 112.048 122.424C111.34 122.069 98.0912 123.755 91.5553 124.643C72.0951 102.162 50.2761 59.5676 43.1996 39.4535Z" fill="#F97316"/>
<path d="M53.2246 49.5105C49.6864 59.3309 77.7956 102.211 92.2925 122.424L98.9266 120.502C84.7738 36.9688 95.0936 9.38088 102.023 6.02853C74.6603 14.7841 73.1271 34.2277 75.7808 42.8551C69.7658 34.2179 69.3432 25.4525 69.8837 22.1494C56.5564 27.7104 53.2246 42.7072 53.2246 49.5105Z" fill="#F97316"/>
<path d="M43.1996 39.4535C37.5385 23.3622 43.1996 7.11311 46.7379 1C23.1497 9.43018 29.9313 39.4535 27.2776 36.0518C25.1547 33.3305 23.6411 25.6497 23.1497 22.1494C11.0608 27.7695 2.2152 39.4535 1.03579 51.4332C0.0922636 61.017 18.0389 80.0761 27.1302 88.4077C25.8328 89.1176 9.97963 78.1534 2.2152 72.5826C4.62316 78.4985 9.55701 91.0402 10.0288 93.8799C10.5005 96.7195 27.5233 105.416 35.9758 109.409L15.4835 105.12C17.9898 110.247 24.1522 121.596 28.7519 125.974C33.3516 130.352 54.4531 136.474 64.429 138.989C56.6449 140.054 42.2168 137.165 35.9758 135.587L52.6349 155.701L72.0951 148.454C45.0867 171.763 22.0194 161.913 13.8619 154.074C13.6161 154.617 13.5965 157.328 15.4835 163.836C17.3706 170.343 37.5974 170.491 47.475 169.751C31.6709 175.194 19.5623 172.019 15.4835 169.751C15.4835 174.484 19.0218 180.302 20.7909 182.619C33.7644 182.855 46.9344 177.886 51.8978 175.372C48.7134 178.921 31.3073 183.95 23.0023 186.02C22.8843 189.688 28.457 192.774 31.2581 193.859C39.9857 192.794 52.0943 183.851 57.0577 179.513C55.8783 186.375 42.5116 194.204 35.9758 197.261C42.4625 198.917 49.7847 196.57 52.6349 195.19C54.8758 189.511 64.3798 179.611 68.8518 175.372C83.5943 184.098 94.3564 176.259 102.317 181.435C110.278 186.612 106.003 184.393 105.119 190.014C104.411 194.51 107.87 197.211 109.689 198C108.411 196.176 107.094 192.025 112.048 190.014C117.001 188.002 122.073 183.457 123.989 181.435L125.168 182.619C121.63 188.715 123.694 191.765 125.168 192.528L152 176.259C147.518 169.87 141.778 170.047 139.469 170.935C137.582 174.603 134.751 176.013 133.572 176.259L94.3564 163.836C98.0126 163.362 104.431 157.131 107.183 154.074C118.151 135.38 126.692 141.848 129.591 147.419C129.473 144.461 127.478 140.566 126.495 138.989C133.808 142.183 134.26 146.926 133.572 148.898C141.828 147.596 138.486 139.087 135.783 134.995C138.142 134.167 128.903 124.002 123.989 119.023C124.038 120.452 123.724 123.282 122.073 123.164C120.421 123.045 117.748 120.354 116.618 119.023L117.355 122.424L112.048 120.502C112.342 121.29 112.755 122.779 112.048 122.424C111.34 122.069 98.0912 123.755 91.5553 124.643C72.0951 102.162 50.2761 59.5676 43.1996 39.4535Z"/>
<path d="M53.2246 49.5105C49.6864 59.3309 77.7956 102.211 92.2925 122.424L98.9266 120.502C84.7738 36.9688 95.0936 9.38088 102.023 6.02853C74.6603 14.7841 73.1271 34.2277 75.7808 42.8551C69.7658 34.2179 69.3432 25.4525 69.8837 22.1494C56.5564 27.7104 53.2246 42.7072 53.2246 49.5105Z"/>
<path d="M218.109 112.547V131.219H287.875V154.109H218.109V197H189.125V89.6562H291.703V112.547H218.109ZM398.812 176.688H338.969L328.891 197H296.547L352.719 89.6562H385.062L441.234 197H408.891L398.812 176.688ZM349.359 155.75H388.578L369.047 116.219L349.359 155.75ZM458.812 197V89.6562H487.797V173.484H566.156V197H458.812ZM707.719 189.656C703.969 191.219 700.193 192.625 696.391 193.875C692.589 195.125 688.656 196.193 684.594 197.078C680.531 198.016 676.234 198.719 671.703 199.188C667.224 199.656 662.406 199.891 657.25 199.891C646.312 199.891 636.234 198.719 627.016 196.375C617.849 194.031 609.932 190.516 603.266 185.828C596.651 181.089 591.495 175.203 587.797 168.172C584.099 161.089 582.25 152.833 582.25 143.406C582.25 133.979 584.099 125.75 587.797 118.719C591.495 111.635 596.651 105.75 603.266 101.062C609.932 96.3229 617.849 92.7812 627.016 90.4375C636.234 88.0938 646.312 86.9219 657.25 86.9219C662.406 86.9219 667.224 87.1562 671.703 87.625C676.234 88.0938 680.531 88.7969 684.594 89.7344C688.656 90.6198 692.589 91.6875 696.391 92.9375C700.193 94.1875 703.969 95.5938 707.719 97.1562V123.25C704.75 121.635 701.625 120.047 698.344 118.484C695.062 116.87 691.443 115.438 687.484 114.188C683.526 112.885 679.177 111.844 674.438 111.062C669.698 110.229 664.359 109.812 658.422 109.812C649.307 109.812 641.729 110.75 635.688 112.625C629.698 114.5 624.906 117 621.312 120.125C617.719 123.25 615.193 126.844 613.734 130.906C612.276 134.917 611.547 139.083 611.547 143.406C611.547 146.271 611.859 149.109 612.484 151.922C613.109 154.682 614.151 157.312 615.609 159.812C617.068 162.26 618.969 164.526 621.312 166.609C623.656 168.693 626.573 170.49 630.062 172C633.552 173.51 637.615 174.708 642.25 175.594C646.938 176.427 652.328 176.844 658.422 176.844C664.359 176.844 669.698 176.479 674.438 175.75C679.177 174.969 683.526 173.953 687.484 172.703C691.443 171.453 695.062 170.047 698.344 168.484C701.625 166.87 704.75 165.229 707.719 163.562V189.656ZM873.656 143.406C873.656 152.625 871.964 160.776 868.578 167.859C865.193 174.891 860.349 180.776 854.047 185.516C847.745 190.255 840.089 193.849 831.078 196.297C822.12 198.693 812.042 199.891 800.844 199.891C789.646 199.891 779.516 198.693 770.453 196.297C761.443 193.849 753.76 190.255 747.406 185.516C741.052 180.776 736.156 174.891 732.719 167.859C729.281 160.776 727.562 152.625 727.562 143.406C727.562 134.188 729.281 126.062 732.719 119.031C736.156 111.948 741.052 106.036 747.406 101.297C753.76 96.5573 761.443 92.9896 770.453 90.5938C779.516 88.1458 789.646 86.9219 800.844 86.9219C812.042 86.9219 822.12 88.1458 831.078 90.5938C840.089 92.9896 847.745 96.5573 854.047 101.297C860.349 106.036 865.193 111.948 868.578 119.031C871.964 126.062 873.656 134.188 873.656 143.406ZM844.359 143.406C844.359 139.396 843.708 135.411 842.406 131.453C841.156 127.443 838.891 123.849 835.609 120.672C832.38 117.495 827.953 114.917 822.328 112.938C816.703 110.958 809.542 109.969 800.844 109.969C795.01 109.969 789.88 110.438 785.453 111.375C781.026 112.26 777.198 113.51 773.969 115.125C770.74 116.74 768.031 118.641 765.844 120.828C763.656 122.964 761.911 125.281 760.609 127.781C759.307 130.229 758.37 132.807 757.797 135.516C757.276 138.172 757.016 140.802 757.016 143.406C757.016 146.062 757.276 148.745 757.797 151.453C758.37 154.161 759.307 156.766 760.609 159.266C761.911 161.714 763.656 164.005 765.844 166.141C768.031 168.276 770.74 170.151 773.969 171.766C777.198 173.328 781.026 174.578 785.453 175.516C789.88 176.401 795.01 176.844 800.844 176.844C809.542 176.844 816.703 175.854 822.328 173.875C827.953 171.896 832.38 169.318 835.609 166.141C838.891 162.964 841.156 159.396 842.406 155.438C843.708 151.427 844.359 147.417 844.359 143.406ZM1001.47 197L929.047 123.25V197H900.062V89.6562H931.547L1004.05 163.719V89.6562H1032.88V197H1001.47Z" fill="#F97316"/>
</svg>
