<svg width="70" height="10" viewBox="0 0 70 10" fill="none" xmlns="http://www.w3.org/2000/svg">
<path d="M0.492 0.599999H2.148L3.432 5.628H3.456V0.599999H4.632V9H3.276L1.692 2.868H1.668V9H0.492V0.599999ZM7.52109 9.12C6.87309 9.12 6.37709 8.936 6.03309 8.568C5.68909 8.2 5.51709 7.68 5.51709 7.008V2.592C5.51709 1.92 5.68909 1.4 6.03309 1.032C6.37709 0.664 6.87309 0.48 7.52109 0.48C8.16909 0.48 8.66509 0.664 9.00909 1.032C9.35309 1.4 9.52509 1.92 9.52509 2.592V7.008C9.52509 7.68 9.35309 8.2 9.00909 8.568C8.66509 8.936 8.16909 9.12 7.52109 9.12ZM7.52109 7.92C7.97709 7.92 8.20509 7.644 8.20509 7.092V2.508C8.20509 1.956 7.97709 1.68 7.52109 1.68C7.06509 1.68 6.83709 1.956 6.83709 2.508V7.092C6.83709 7.644 7.06509 7.92 7.52109 7.92ZM12.3258 9.12C11.6778 9.12 11.1818 8.936 10.8378 8.568C10.4938 8.2 10.3218 7.68 10.3218 7.008V2.592C10.3218 1.92 10.4938 1.4 10.8378 1.032C11.1818 0.664 11.6778 0.48 12.3258 0.48C12.9738 0.48 13.4698 0.664 13.8138 1.032C14.1578 1.4 14.3298 1.92 14.3298 2.592V7.008C14.3298 7.68 14.1578 8.2 13.8138 8.568C13.4698 8.936 12.9738 9.12 12.3258 9.12ZM12.3258 7.92C12.7818 7.92 13.0098 7.644 13.0098 7.092V2.508C13.0098 1.956 12.7818 1.68 12.3258 1.68C11.8698 1.68 11.6418 1.956 11.6418 2.508V7.092C11.6418 7.644 11.8698 7.92 12.3258 7.92ZM15.2225 0.599999H17.1785C17.8585 0.599999 18.3545 0.76 18.6665 1.08C18.9785 1.392 19.1345 1.876 19.1345 2.532V3.048C19.1345 3.92 18.8465 4.472 18.2705 4.704V4.728C18.5905 4.824 18.8145 5.02 18.9425 5.316C19.0785 5.612 19.1465 6.008 19.1465 6.504V7.98C19.1465 8.22 19.1545 8.416 19.1705 8.568C19.1865 8.712 19.2265 8.856 19.2905 9H17.9465C17.8985 8.864 17.8665 8.736 17.8505 8.616C17.8345 8.496 17.8265 8.28 17.8265 7.968V6.432C17.8265 6.048 17.7625 5.78 17.6345 5.628C17.5145 5.476 17.3025 5.4 16.9985 5.4H16.5425V9H15.2225V0.599999ZM17.0225 4.2C17.2865 4.2 17.4825 4.132 17.6105 3.996C17.7465 3.86 17.8145 3.632 17.8145 3.312V2.664C17.8145 2.36 17.7585 2.14 17.6465 2.004C17.5425 1.868 17.3745 1.8 17.1425 1.8H16.5425V4.2H17.0225Z" fill="#FF0000"/>
<path d="M21.9842 0.599999H25.5842V1.8H23.3042V4.02H25.1162V5.22H23.3042V7.8H25.5842V9H21.9842V0.599999ZM26.3436 0.599999H27.6636V7.8H29.8356V9H26.3436V0.599999ZM30.4686 0.599999H34.0686V1.8H31.7886V4.02H33.6006V5.22H31.7886V7.8H34.0686V9H30.4686V0.599999ZM36.6879 9.12C36.0559 9.12 35.5719 8.94 35.2359 8.58C34.9079 8.22 34.7439 7.712 34.7439 7.056V2.544C34.7439 1.888 34.9079 1.38 35.2359 1.02C35.5719 0.66 36.0559 0.48 36.6879 0.48C37.3199 0.48 37.7999 0.66 38.1279 1.02C38.4639 1.38 38.6319 1.888 38.6319 2.544V3.432H37.3839V2.46C37.3839 1.94 37.1639 1.68 36.7239 1.68C36.2839 1.68 36.0639 1.94 36.0639 2.46V7.152C36.0639 7.664 36.2839 7.92 36.7239 7.92C37.1639 7.92 37.3839 7.664 37.3839 7.152V5.868H38.6319V7.056C38.6319 7.712 38.4639 8.22 38.1279 8.58C37.7999 8.94 37.3199 9.12 36.6879 9.12ZM40.4537 1.8H39.0737V0.599999H43.1537V1.8H41.7737V9H40.4537V1.8ZM43.7928 0.599999H45.7488C46.4288 0.599999 46.9248 0.76 47.2368 1.08C47.5488 1.392 47.7048 1.876 47.7048 2.532V3.048C47.7048 3.92 47.4168 4.472 46.8408 4.704V4.728C47.1608 4.824 47.3848 5.02 47.5128 5.316C47.6488 5.612 47.7168 6.008 47.7168 6.504V7.98C47.7168 8.22 47.7248 8.416 47.7408 8.568C47.7568 8.712 47.7968 8.856 47.8608 9H46.5168C46.4688 8.864 46.4368 8.736 46.4208 8.616C46.4048 8.496 46.3968 8.28 46.3968 7.968V6.432C46.3968 6.048 46.3328 5.78 46.2048 5.628C46.0848 5.476 45.8728 5.4 45.5688 5.4H45.1128V9H43.7928V0.599999ZM45.5928 4.2C45.8568 4.2 46.0528 4.132 46.1808 3.996C46.3168 3.86 46.3848 3.632 46.3848 3.312V2.664C46.3848 2.36 46.3288 2.14 46.2168 2.004C46.1128 1.868 45.9448 1.8 45.7128 1.8H45.1128V4.2H45.5928ZM50.5406 9.12C49.8926 9.12 49.3966 8.936 49.0526 8.568C48.7086 8.2 48.5366 7.68 48.5366 7.008V2.592C48.5366 1.92 48.7086 1.4 49.0526 1.032C49.3966 0.664 49.8926 0.48 50.5406 0.48C51.1886 0.48 51.6846 0.664 52.0286 1.032C52.3726 1.4 52.5446 1.92 52.5446 2.592V7.008C52.5446 7.68 52.3726 8.2 52.0286 8.568C51.6846 8.936 51.1886 9.12 50.5406 9.12ZM50.5406 7.92C50.9966 7.92 51.2246 7.644 51.2246 7.092V2.508C51.2246 1.956 50.9966 1.68 50.5406 1.68C50.0846 1.68 49.8566 1.956 49.8566 2.508V7.092C49.8566 7.644 50.0846 7.92 50.5406 7.92ZM53.4373 0.599999H55.0933L56.3773 5.628H56.4013V0.599999H57.5773V9H56.2213L54.6373 2.868H54.6133V9H53.4373V0.599999ZM58.5584 0.599999H59.8784V9H58.5584V0.599999ZM62.727 9.12C62.095 9.12 61.611 8.94 61.275 8.58C60.947 8.22 60.783 7.712 60.783 7.056V2.544C60.783 1.888 60.947 1.38 61.275 1.02C61.611 0.66 62.095 0.48 62.727 0.48C63.359 0.48 63.839 0.66 64.167 1.02C64.503 1.38 64.671 1.888 64.671 2.544V3.432H63.423V2.46C63.423 1.94 63.203 1.68 62.763 1.68C62.323 1.68 62.103 1.94 62.103 2.46V7.152C62.103 7.664 62.323 7.92 62.763 7.92C63.203 7.92 63.423 7.664 63.423 7.152V5.868H64.671V7.056C64.671 7.712 64.503 8.22 64.167 8.58C63.839 8.94 63.359 9.12 62.727 9.12ZM67.2002 9.12C66.5602 9.12 66.0762 8.94 65.7482 8.58C65.4202 8.212 65.2562 7.688 65.2562 7.008V6.528H66.5042V7.104C66.5042 7.648 66.7322 7.92 67.1882 7.92C67.4122 7.92 67.5802 7.856 67.6922 7.728C67.8122 7.592 67.8722 7.376 67.8722 7.08C67.8722 6.728 67.7922 6.42 67.6322 6.156C67.4722 5.884 67.1762 5.56 66.7442 5.184C66.2002 4.704 65.8202 4.272 65.6042 3.888C65.3882 3.496 65.2802 3.056 65.2802 2.568C65.2802 1.904 65.4482 1.392 65.7842 1.032C66.1202 0.664 66.6082 0.48 67.2482 0.48C67.8802 0.48 68.3562 0.664 68.6762 1.032C69.0042 1.392 69.1682 1.912 69.1682 2.592V2.94H67.9202V2.508C67.9202 2.22 67.8642 2.012 67.7522 1.884C67.6402 1.748 67.4762 1.68 67.2602 1.68C66.8202 1.68 66.6002 1.948 66.6002 2.484C66.6002 2.788 66.6802 3.072 66.8402 3.336C67.0082 3.6 67.3082 3.92 67.7402 4.296C68.2922 4.776 68.6722 5.212 68.8802 5.604C69.0882 5.996 69.1922 6.456 69.1922 6.984C69.1922 7.672 69.0202 8.2 68.6762 8.568C68.3402 8.936 67.8482 9.12 67.2002 9.12Z" fill="black"/>
</svg>
